<mxfile host="app.diagrams.net" agent="Mozilla/5.0 (Windows NT 10.0; Win64; x64) AppleWebKit/537.36 (KHTML, like Gecko) Chrome/134.0.0.0 Safari/537.36" version="26.1.3">
  <diagram id="C5RBs43oDa-KdzZeNtuy" name="Page-1">
    <mxGraphModel dx="743" dy="421" grid="1" gridSize="10" guides="1" tooltips="1" connect="1" arrows="1" fold="1" page="1" pageScale="1" pageWidth="827" pageHeight="1169" background="none" math="0" shadow="0">
      <root>
        <mxCell id="WIyWlLk6GJQsqaUBKTNV-0" />
        <mxCell id="WIyWlLk6GJQsqaUBKTNV-1" parent="WIyWlLk6GJQsqaUBKTNV-0" />
        <mxCell id="w4PSEf6JW52mtWiH3uxk-0" value="数据库学习系统" style="swimlane;fontSize=14;fillColor=#76c7c0;strokeColor=none;" vertex="1" parent="WIyWlLk6GJQsqaUBKTNV-1">
          <mxGeometry x="214" y="20" width="400" height="441" as="geometry">
            <mxRectangle x="214" y="20" width="140" height="30" as="alternateBounds" />
          </mxGeometry>
        </mxCell>
        <mxCell id="w4PSEf6JW52mtWiH3uxk-1" value="管理员端" style="swimlane;fontSize=14;fillColor=#76c7c0;strokeColor=none;" vertex="1" parent="w4PSEf6JW52mtWiH3uxk-0">
          <mxGeometry x="-104" y="61" width="324" height="380" as="geometry">
            <mxRectangle x="110" y="70" width="100" height="30" as="alternateBounds" />
          </mxGeometry>
        </mxCell>
        <mxCell id="w4PSEf6JW52mtWiH3uxk-20" style="edgeStyle=orthogonalEdgeStyle;rounded=0;orthogonalLoop=1;jettySize=auto;html=1;exitX=0.5;exitY=0;exitDx=0;exitDy=0;endArrow=none;startFill=0;" edge="1" parent="w4PSEf6JW52mtWiH3uxk-1" source="w4PSEf6JW52mtWiH3uxk-4">
          <mxGeometry relative="1" as="geometry">
            <mxPoint x="140" y="29" as="targetPoint" />
            <Array as="points">
              <mxPoint x="140" y="49" />
            </Array>
          </mxGeometry>
        </mxCell>
        <mxCell id="w4PSEf6JW52mtWiH3uxk-4" value="多&#xa;样&#xa;化&#xa;自&#xa;然&#xa;语&#xa;言&#xa;查&#xa;询&#xa;管&#xa;理" style="rounded=1;fillColor=#b3e2dc" vertex="1" parent="w4PSEf6JW52mtWiH3uxk-1">
          <mxGeometry x="130" y="49" width="30" height="155" as="geometry" />
        </mxCell>
        <mxCell id="w4PSEf6JW52mtWiH3uxk-21" style="edgeStyle=orthogonalEdgeStyle;rounded=0;orthogonalLoop=1;jettySize=auto;html=1;exitX=0.5;exitY=0;exitDx=0;exitDy=0;" edge="1" parent="w4PSEf6JW52mtWiH3uxk-1" source="w4PSEf6JW52mtWiH3uxk-5">
          <mxGeometry relative="1" as="geometry">
            <mxPoint x="160" y="29" as="targetPoint" />
            <Array as="points">
              <mxPoint x="180" y="49" />
              <mxPoint x="180" y="29" />
            </Array>
          </mxGeometry>
        </mxCell>
        <mxCell id="w4PSEf6JW52mtWiH3uxk-5" value="SQL&#xa;生&#xa;成&#xa;与&#xa;验&#xa;证" style="rounded=1;fillColor=#b3e2dc;labelPosition=center;verticalLabelPosition=middle;align=center;verticalAlign=middle;horizontal=1;whiteSpace=wrap;" vertex="1" parent="w4PSEf6JW52mtWiH3uxk-1">
          <mxGeometry x="170" y="49" width="30" height="100" as="geometry" />
        </mxCell>
        <mxCell id="w4PSEf6JW52mtWiH3uxk-6" value="实&#xa;验报告生成" style="rounded=1;fillColor=#b3e2dc;labelPosition=center;verticalLabelPosition=middle;align=center;verticalAlign=top;whiteSpace=wrap;textDirection=ltr;" vertex="1" parent="w4PSEf6JW52mtWiH3uxk-1">
          <mxGeometry x="210" y="49" width="20" height="100" as="geometry" />
        </mxCell>
        <mxCell id="w4PSEf6JW52mtWiH3uxk-7" value="管理员登陆与注册" style="rounded=1;fillColor=#b3e2dc;whiteSpace=wrap;" vertex="1" parent="w4PSEf6JW52mtWiH3uxk-1">
          <mxGeometry x="240" y="49" width="20" height="130" as="geometry" />
        </mxCell>
        <mxCell id="w4PSEf6JW52mtWiH3uxk-8" value="学生管理" style="rounded=1;fillColor=#b3e2dc" vertex="1" parent="w4PSEf6JW52mtWiH3uxk-1">
          <mxGeometry x="20" y="440" width="120" height="40" as="geometry" />
        </mxCell>
        <mxCell id="w4PSEf6JW52mtWiH3uxk-18" style="rounded=0;orthogonalLoop=1;jettySize=auto;html=1;exitX=0.5;exitY=0;exitDx=0;exitDy=0;startArrow=none;startFill=0;endArrow=none;edgeStyle=elbowEdgeStyle;elbow=vertical;curved=0;" edge="1" parent="w4PSEf6JW52mtWiH3uxk-1" source="w4PSEf6JW52mtWiH3uxk-13">
          <mxGeometry relative="1" as="geometry">
            <mxPoint x="160" y="19" as="targetPoint" />
          </mxGeometry>
        </mxCell>
        <mxCell id="w4PSEf6JW52mtWiH3uxk-13" value="知&#xa;识&#xa;点&#xa;管&#xa;理" style="rounded=1;fillColor=#b3e2dc" vertex="1" parent="w4PSEf6JW52mtWiH3uxk-1">
          <mxGeometry x="90" y="49" width="30" height="85" as="geometry" />
        </mxCell>
        <mxCell id="w4PSEf6JW52mtWiH3uxk-19" style="edgeStyle=elbowEdgeStyle;rounded=0;orthogonalLoop=1;jettySize=auto;html=1;exitX=0.5;exitY=1;exitDx=0;exitDy=0;endArrow=none;startFill=0;elbow=vertical;" edge="1" parent="w4PSEf6JW52mtWiH3uxk-1" source="w4PSEf6JW52mtWiH3uxk-2">
          <mxGeometry relative="1" as="geometry">
            <mxPoint x="160" y="19" as="targetPoint" />
          </mxGeometry>
        </mxCell>
        <mxCell id="w4PSEf6JW52mtWiH3uxk-2" value="schema&#xa;导入" style="rounded=1;fillColor=#b3e2dc;arcSize=13;direction=west;whiteSpace=wrap;" vertex="1" parent="w4PSEf6JW52mtWiH3uxk-1">
          <mxGeometry x="40" y="49" width="40" height="105" as="geometry" />
        </mxCell>
        <mxCell id="w4PSEf6JW52mtWiH3uxk-9" value="学生端" style="swimlane;fontSize=14;fillColor=#76c7c0;strokeColor=none;" vertex="1" parent="w4PSEf6JW52mtWiH3uxk-0">
          <mxGeometry x="310" y="61" width="150" height="280" as="geometry">
            <mxRectangle x="510" y="90" width="80" height="30" as="alternateBounds" />
          </mxGeometry>
        </mxCell>
        <mxCell id="w4PSEf6JW52mtWiH3uxk-10" value="学生登陆与注册" style="rounded=1;fillColor=#b3e2dc;whiteSpace=wrap;" vertex="1" parent="w4PSEf6JW52mtWiH3uxk-9">
          <mxGeometry x="106" y="49" width="20" height="120" as="geometry" />
        </mxCell>
        <mxCell id="w4PSEf6JW52mtWiH3uxk-11" value="自学" style="rounded=1;fillColor=#b3e2dc;whiteSpace=wrap;" vertex="1" parent="w4PSEf6JW52mtWiH3uxk-9">
          <mxGeometry x="16" y="49" width="20" height="40" as="geometry" />
        </mxCell>
        <mxCell id="w4PSEf6JW52mtWiH3uxk-12" value="自测" style="rounded=1;fillColor=#b3e2dc;whiteSpace=wrap;" vertex="1" parent="w4PSEf6JW52mtWiH3uxk-9">
          <mxGeometry x="60" y="49" width="20" height="40" as="geometry" />
        </mxCell>
        <mxCell id="w4PSEf6JW52mtWiH3uxk-14" value="" style="shape=image;verticalLabelPosition=bottom;labelBackgroundColor=default;verticalAlign=top;aspect=fixed;imageAspect=0;image=chrome-extension://ljfjnlcnpmabfcgcmffkmgainghokdpl/icons/icon-128.png;" vertex="1" parent="WIyWlLk6GJQsqaUBKTNV-1">
          <mxGeometry x="1120" y="150" width="128" height="128" as="geometry" />
        </mxCell>
        <mxCell id="w4PSEf6JW52mtWiH3uxk-15" value="" style="shape=image;verticalLabelPosition=bottom;labelBackgroundColor=default;verticalAlign=top;aspect=fixed;imageAspect=0;image=chrome-extension://ljfjnlcnpmabfcgcmffkmgainghokdpl/icons/icon-128.png;" vertex="1" parent="WIyWlLk6GJQsqaUBKTNV-1">
          <mxGeometry x="1120" y="200" width="128" height="128" as="geometry" />
        </mxCell>
      </root>
    </mxGraphModel>
  </diagram>
</mxfile>
